<?xml version="1.0" encoding="UTF-8"?>
<svg id="Camada_1" xmlns="http://www.w3.org/2000/svg" version="1.1" viewBox="0 0 1644.09 425.2">
  <!-- Generator: Adobe Illustrator 29.8.2, SVG Export Plug-In . SVG Version: 2.1.1 Build 3)  -->
  <defs>
    <style>
      .st0 {
        fill: #4e9333;
      }

      .st1 {
        fill: #fdc41f;
      }
    </style>
  </defs>
  <g id="Logo10">
    <polygon class="st0" points="142.5 312.08 86.98 312.08 86.98 117.74 216.53 117.74 216.53 168.64 142.5 168.64 142.5 191.78 202.65 191.78 202.65 238.05 142.5 238.05 142.5 312.08"/>
    <g>
      <path class="st0" d="M459.88,238.05c0,8.87-2.71,16.49-8.1,22.85-5.39,6.36-11.95,9.55-19.66,9.55s-14.27-3.18-19.66-9.55c-5.4-6.36-8.1-13.98-8.1-22.85s2.7-16.49,8.1-22.85c5.39-6.36,11.95-9.54,19.66-9.54s14.27,3.18,19.66,9.54c5.39,6.36,8.1,13.98,8.1,22.85M321.35,238.05c0,8.87-2.7,16.49-8.1,22.85-5.4,6.36-11.96,9.55-19.66,9.55s-14.27-3.18-19.66-9.55c-5.4-6.36-8.1-13.98-8.1-22.85s2.7-16.49,8.1-22.85c5.39-6.36,11.95-9.54,19.66-9.54s14.26,3.18,19.66,9.54c5.39,6.36,8.1,13.98,8.1,22.85M515.41,238.05c0-21.98-7.81-40.58-23.43-55.81-15.61-15.23-35.57-22.85-59.86-22.85s-45.7,7.52-60.73,22.56c-3.39,3.39-6.27,7.02-8.89,10.77-2.66-3.65-5.63-7.16-9.04-10.49-15.62-15.23-35.57-22.85-59.86-22.85s-45.7,7.52-60.73,22.56c-15.04,15.03-22.56,33.74-22.56,56.1s7.56,41.07,22.7,56.11c15.13,15.03,35.33,22.55,60.59,22.55s44.25-7.56,59.86-22.7c3.46-3.34,6.46-6.9,9.16-10.59,2.64,3.75,5.52,7.37,8.92,10.75,15.14,15.03,35.33,22.55,60.59,22.55s44.25-7.56,59.86-22.7c15.62-15.13,23.43-33.78,23.43-55.96"/>
      <path class="st0" d="M613.61,210.28h-27.77v37.02c0,10.99,1.69,18.13,5.06,21.4,3.37,3.28,10.94,3.86,22.7,1.73v41.65c-10.03,3.08-22.37,4.63-37.02,4.63-16.78,0-28.63-4.1-35.57-12.29-6.95-8.2-10.51-20.78-10.7-37.75v-56.39h-18.51v-46.27h18.51v-46.27h55.52v46.27h27.77v46.27Z"/>
      <path class="st0" d="M691.98,260.89c5.39,6.36,11.95,9.55,19.67,9.55s14.26-3.18,19.66-9.55c5.39-6.36,8.1-13.97,8.1-22.85s-2.7-16.48-8.1-22.85c-5.4-6.36-11.96-9.54-19.66-9.54s-14.28,3.18-19.67,9.54c-5.39,6.37-8.1,13.98-8.1,22.85s2.7,16.49,8.1,22.85M725.53,159.38c19.27,0,35.67,7.66,49.16,22.99,13.5,15.33,20.25,33.88,20.25,55.67s-6.75,40.35-20.25,55.67c-13.5,15.33-29.89,22.99-49.16,22.99-16.78,0-30.65-6.55-41.65-19.66v15.04h-55.52V108.49h55.52v70.56c10.99-13.11,24.87-19.66,41.65-19.66"/>
      <path class="st0" d="M865.22,260.89c5.39,6.36,11.95,9.55,19.66,9.55s14.27-3.18,19.66-9.55c5.4-6.36,8.1-13.97,8.1-22.84s-2.7-16.49-8.1-22.85c-5.39-6.36-11.95-9.55-19.66-9.55s-14.27,3.18-19.66,9.55c-5.4,6.36-8.1,13.98-8.1,22.85s2.69,16.48,8.1,22.84M912.65,164.01h55.52v148.07h-55.52v-15.04c-10.99,13.11-24.87,19.67-41.65,19.67-19.28,0-35.67-7.66-49.16-22.99-13.5-15.33-20.25-33.88-20.25-55.67s6.75-40.35,20.25-55.68c13.49-15.32,29.88-22.99,49.16-22.99,16.78,0,30.65,6.56,41.65,19.67v-15.04Z"/>
    </g>
    <rect class="st0" x="981.77" y="108.48" width="55.53" height="203.6"/>
    <rect class="st0" x="1050.89" y="108.48" width="55.53" height="203.6"/>
    <path class="st1" d="M1314.07,260.89c5.39,6.36,11.95,9.55,19.66,9.55s14.27-3.18,19.67-9.55c5.39-6.36,8.1-13.97,8.1-22.84s-2.7-16.49-8.1-22.85c-5.4-6.36-11.96-9.55-19.67-9.55s-14.27,3.18-19.66,9.55c-5.4,6.36-8.1,13.98-8.1,22.85s2.69,16.48,8.1,22.84M1361.5,164.01h55.52v148.07h-55.52v-15.04c-10.99,13.11-24.87,19.67-41.65,19.67-19.28,0-35.67-7.66-49.16-22.99-13.5-15.33-20.25-33.88-20.25-55.67s6.74-40.35,20.25-55.68c13.49-15.32,29.88-22.99,49.16-22.99,16.78,0,30.65,6.56,41.65,19.67v-15.04Z"/>
    <path class="st1" d="M1500.02,260.89c5.39,6.36,11.96,9.55,19.67,9.55s14.26-3.18,19.66-9.55c5.39-6.36,8.1-13.97,8.1-22.85s-2.7-16.48-8.1-22.85c-5.4-6.36-11.96-9.54-19.66-9.54s-14.28,3.18-19.67,9.54c-5.39,6.37-8.1,13.98-8.1,22.85s2.7,16.49,8.1,22.85M1533.57,159.38c19.28,0,35.67,7.66,49.16,22.99,13.5,15.33,20.25,33.88,20.25,55.67s-6.75,40.35-20.25,55.67c-13.5,15.33-29.88,22.99-49.16,22.99-16.78,0-30.65-6.55-41.65-19.66v15.04h-55.53V108.49h55.53v70.56c10.99-13.11,24.87-19.66,41.65-19.66"/>
    <polygon class="st1" points="1175.54 261.18 1249.58 261.18 1249.58 312.09 1120.01 312.09 1120.01 117.74 1175.54 117.74 1175.54 261.18"/>
  </g>
</svg>